<?xml version="1.0" encoding="UTF-8"?>
<svg id="Layer_2" data-name="Layer 2" xmlns="http://www.w3.org/2000/svg" viewBox="0 0 808.51 124.42">
  <defs>
    <style>
      .cls-1 {
        fill: #231f20;
      }
    </style>
  </defs>
  <g id="Layer_1-2" data-name="Layer 1">
    <g>
      <path class="cls-1" d="m58.05.67h1.5l57.79,117.84c.81,1.66-.39,3.59-2.24,3.59h-26.18c-.97,0-1.85-.56-2.26-1.45l-7.14-15.41c-.41-.88-1.29-1.45-2.26-1.45h-37.06c-.98,0-1.87.57-2.27,1.46l-6.99,15.37c-.4.89-1.29,1.46-2.27,1.46H2.5c-1.85,0-3.05-1.94-2.24-3.59L58.05.67Zm10.64,79.2c-2.69-6.27-5.5-13.13-7.63-18.9-.79-2.15-3.8-2.18-4.64-.04-2.19,5.58-5.23,13.35-7.56,18.97-.68,1.64.53,3.44,2.31,3.44h15.23c1.79,0,3-1.82,2.29-3.47Z"/>
      <path class="cls-1" d="m187.94,2.33c28.61,0,48.41,13.81,48.41,40.75,0,16.24-7.77,27.35-19.6,33.47-1.26.65-1.79,2.17-1.11,3.42l20.87,38.43c.9,1.66-.3,3.69-2.19,3.69h-26.02c-.95,0-1.82-.54-2.24-1.4l-17.93-36.63c-.42-.86-1.29-1.4-2.24-1.4h-9.26c-1.38,0-2.49,1.12-2.49,2.49v34.43c0,1.38-1.12,2.49-2.49,2.49h-24.78c-1.38,0-2.49-1.12-2.49-2.49V4.82c0-1.38,1.12-2.49,2.49-2.49h41.09Zm-13.81,28.11v25.45c0,1.38,1.12,2.49,2.49,2.49h12.81c9.15,0,16.14-4.32,16.14-15.3s-7.15-15.14-16.3-15.14h-12.64c-1.38,0-2.49,1.12-2.49,2.49Z"/>
      <path class="cls-1" d="m321.91,30.44v89.16c0,1.38-1.12,2.49-2.49,2.49h-25.62c-1.38,0-2.49-1.12-2.49-2.49V30.44c0-1.38-1.12-2.49-2.49-2.49h-26.95c-1.38,0-2.49-1.12-2.49-2.49V4.82c0-1.38,1.12-2.49,2.49-2.49h89.49c1.38,0,2.49,1.12,2.49,2.49v20.63c0,1.38-1.12,2.49-2.49,2.49h-26.95c-1.38,0-2.49,1.12-2.49,2.49Z"/>
      <path class="cls-1" d="m380.44,119.6V4.82c0-1.38,1.12-2.49,2.49-2.49h73.52c1.38,0,2.49,1.12,2.49,2.49v20.63c0,1.38-1.12,2.49-2.49,2.49h-43.08c-1.38,0-2.49,1.12-2.49,2.49v16.3c0,1.38,1.12,2.49,2.49,2.49h36.1c1.38,0,2.49,1.12,2.49,2.49v19.3c0,1.38-1.12,2.49-2.49,2.49h-36.1c-1.38,0-2.49,1.12-2.49,2.49v17.97c0,1.38,1.12,2.49,2.49,2.49h45.58c1.38,0,2.49,1.12,2.49,2.49v20.63c0,1.38-1.12,2.49-2.49,2.49h-76.02c-1.38,0-2.49-1.12-2.49-2.49Z"/>
      <path class="cls-1" d="m538.13,2.33c28.61,0,48.41,13.81,48.41,40.75,0,16.24-7.77,27.35-19.6,33.47-1.26.65-1.79,2.17-1.11,3.42l20.87,38.43c.9,1.66-.3,3.69-2.19,3.69h-26.02c-.95,0-1.82-.54-2.24-1.4l-17.93-36.63c-.42-.86-1.29-1.4-2.24-1.4h-9.26c-1.38,0-2.49,1.12-2.49,2.49v34.43c0,1.38-1.12,2.49-2.49,2.49h-24.78c-1.38,0-2.49-1.12-2.49-2.49V4.82c0-1.38,1.12-2.49,2.49-2.49h41.09Zm-13.81,28.11v25.45c0,1.38,1.12,2.49,2.49,2.49h12.81c9.15,0,16.14-4.32,16.14-15.3s-7.15-15.14-16.3-15.14h-12.64c-1.38,0-2.49,1.12-2.49,2.49Z"/>
      <path class="cls-1" d="m619.88,119.6V4.82c0-1.38,1.12-2.49,2.49-2.49h25.45c1.38,0,2.49,1.12,2.49,2.49v114.78c0,1.38-1.12,2.49-2.49,2.49h-25.45c-1.38,0-2.49-1.12-2.49-2.49Z"/>
      <path class="cls-1" d="m745.13,0c36.93,0,63.38,27.78,63.38,62.21s-26.28,62.21-63.38,62.21-63.38-27.45-63.38-62.21S708.2,0,745.13,0Zm0,96.65c19.46,0,32.6-15.8,32.6-34.43s-13.14-34.43-32.6-34.43-32.77,15.97-32.77,34.43,13.31,34.43,32.77,34.43Z"/>
    </g>
  </g>
</svg>